<svg width="55" height="79" viewBox="0 0 55 79" fill="none" xmlns="http://www.w3.org/2000/svg">
<path d="M45.3646 25.2671C37.5975 12.2861 27.6847 0.367188 27.6847 0.367188C27.6847 0.367188 17.7398 12.3183 9.96192 25.3314L27.6311 42.7002L45.3646 25.2671Z" fill="black"/>
<path d="M47.9928 29.8586V33.7851L33.4563 48.4504V77.4055C31.8792 77.781 30.2486 78.0063 28.5857 78.0706V69.3165H28.7145V44.481L46.4373 27.08C46.9737 28.0026 47.4886 28.936 47.9928 29.8586Z" fill="black"/>
<path d="M5.24141 34.0103V34.6218L19.7779 49.2871V76.7939C18.1151 76.2253 16.5059 75.4851 14.9932 74.5947L14.9074 52.7523L2.57012 40.3828C3.2889 38.3337 4.19005 36.1881 5.24141 34.0103Z" fill="black"/>
<path d="M0.875 48.7724C0.875 46.9058 1.25049 44.8138 1.88344 42.5823L12.8797 53.5893L12.9441 73.2539C11.1847 71.988 9.57547 70.4968 8.1379 68.8232V58.2346H6.09957V66.1519C2.81678 61.2921 0.875 55.2844 0.875 48.7724Z" fill="black"/>
<path d="M8.89959 27.1444C8.34173 28.11 7.79457 29.0755 7.2689 30.0518V33.7851L21.8055 48.4504V77.3734C23.3396 77.7488 24.9273 77.9848 26.5473 78.0599V44.481L8.89959 27.1444Z" fill="black"/>
<path d="M50.0201 33.7955C51.1144 36.0484 52.0584 38.2584 52.7987 40.3719L40.4721 52.7521L40.397 74.5945C38.8414 75.5063 37.2 76.2573 35.4836 76.8259V49.2869L50.0201 34.6216V33.7955Z" fill="black"/>
<path d="M42.511 53.6L42.4359 73.2539C44.3025 71.9129 45.9976 70.3251 47.4995 68.5228V58.2346H49.5379V65.7442C52.6598 60.9488 54.4943 55.102 54.4943 48.7724C54.4943 46.895 54.1188 44.803 53.4858 42.5608L42.511 53.6Z" fill="black"/>
</svg>
