<svg width="1034" height="604" viewBox="0 0 1034 604" fill="none" xmlns="http://www.w3.org/2000/svg">
<rect x="1" y="1" width="1032" height="602" rx="23" fill="#CFB8FF"/>
<rect x="418" y="59" width="198" height="198" rx="99" fill="#FDFFE7"/>
<path d="M484.089 167.048C483.161 167.048 482.697 166.888 482.697 166.568C482.697 166.44 482.745 166.28 482.841 166.088L489.705 150.656C489.785 150.464 489.953 150.336 490.209 150.272C490.465 150.192 490.769 150.152 491.121 150.152H492.369C492.721 150.152 493.017 150.192 493.257 150.272C493.497 150.336 493.641 150.464 493.689 150.656L497.337 166.088C497.353 166.12 497.369 166.192 497.385 166.304C497.401 166.4 497.409 166.464 497.409 166.496C497.409 166.656 497.297 166.792 497.073 166.904C496.849 167 496.529 167.048 496.113 167.048H495.057C494.705 167.048 494.409 167.016 494.169 166.952C493.945 166.872 493.809 166.736 493.761 166.544L493.065 163.616H487.521L486.201 166.544C486.121 166.72 485.977 166.848 485.769 166.928C485.577 167.008 485.337 167.048 485.049 167.048H484.089ZM488.865 160.448H492.345L491.505 156.176C491.441 155.92 491.393 155.664 491.361 155.408C491.345 155.152 491.329 154.896 491.313 154.64H491.217C491.153 154.896 491.073 155.16 490.977 155.432C490.897 155.688 490.801 155.936 490.689 156.176L488.865 160.448ZM503.368 172.088C502.552 172.088 501.808 172.016 501.136 171.872C500.464 171.728 499.928 171.528 499.528 171.272C499.128 171.016 498.928 170.72 498.928 170.384C498.928 169.568 498.976 169.016 499.072 168.728C499.184 168.44 499.296 168.296 499.408 168.296C499.504 168.296 499.688 168.376 499.96 168.536C500.232 168.696 500.592 168.856 501.04 169.016C501.488 169.192 502.024 169.28 502.648 169.28C503.576 169.28 504.304 169.008 504.832 168.464C505.36 167.936 505.672 167.184 505.768 166.208L506.008 163.88L506.392 164.648C506.088 165.24 505.632 165.768 505.024 166.232C504.416 166.68 503.712 166.904 502.912 166.904C502.288 166.904 501.72 166.8 501.208 166.592C500.712 166.368 500.28 166.048 499.912 165.632C499.56 165.2 499.28 164.672 499.072 164.048C498.88 163.424 498.784 162.704 498.784 161.888C498.784 160.368 499.016 159.04 499.48 157.904C499.96 156.752 500.616 155.856 501.448 155.216C502.296 154.576 503.264 154.256 504.352 154.256C505.024 154.256 505.608 154.408 506.104 154.712C506.6 155 506.976 155.264 507.232 155.504C507.328 155.216 507.416 155 507.496 154.856C507.576 154.696 507.712 154.584 507.904 154.52C508.096 154.44 508.392 154.4 508.792 154.4H509.08C509.56 154.4 509.912 154.456 510.136 154.568C510.36 154.664 510.472 154.808 510.472 155L509.488 164.768C509.328 166.384 509 167.736 508.504 168.824C508.024 169.912 507.36 170.728 506.512 171.272C505.664 171.816 504.616 172.088 503.368 172.088ZM504.256 164C504.512 164 504.752 163.936 504.976 163.808C505.2 163.68 505.408 163.512 505.6 163.304C505.792 163.08 505.968 162.848 506.128 162.608L506.44 159.8C506.488 159.4 506.528 159.024 506.56 158.672C506.608 158.32 506.664 157.992 506.728 157.688C506.52 157.512 506.288 157.368 506.032 157.256C505.776 157.128 505.488 157.064 505.168 157.064C504.736 157.064 504.344 157.168 503.992 157.376C503.656 157.568 503.368 157.856 503.128 158.24C502.888 158.624 502.704 159.104 502.576 159.68C502.448 160.256 502.384 160.92 502.384 161.672C502.384 162.184 502.448 162.616 502.576 162.968C502.72 163.304 502.928 163.56 503.2 163.736C503.488 163.912 503.84 164 504.256 164ZM514.717 167.192C513.789 167.192 513.045 166.936 512.485 166.424C511.941 165.896 511.733 164.976 511.861 163.664L512.725 155.168C512.773 154.656 513.277 154.4 514.237 154.4H514.909C515.389 154.4 515.741 154.48 515.965 154.64C516.205 154.784 516.309 154.952 516.277 155.144L515.413 163.472C515.381 163.808 515.421 164.048 515.533 164.192C515.661 164.32 515.853 164.384 516.109 164.384C516.285 164.384 516.429 164.36 516.541 164.312C516.669 164.264 516.757 164.24 516.805 164.24C516.933 164.24 516.997 164.336 516.997 164.528C516.997 164.592 516.989 164.744 516.973 164.984C516.957 165.208 516.909 165.528 516.829 165.944C516.749 166.392 516.477 166.712 516.013 166.904C515.565 167.096 515.133 167.192 514.717 167.192ZM514.717 153.224C514.093 153.224 513.645 153.16 513.373 153.032C513.117 152.904 512.997 152.712 513.013 152.456L513.205 150.584C513.237 150.328 513.397 150.136 513.685 150.008C513.973 149.88 514.437 149.816 515.077 149.816C515.685 149.816 516.125 149.88 516.397 150.008C516.669 150.136 516.789 150.328 516.757 150.584L516.565 152.456C516.517 152.968 515.901 153.224 514.717 153.224ZM521.165 167.192C520.237 167.192 519.493 166.936 518.933 166.424C518.389 165.896 518.181 164.976 518.309 163.664L519.773 149.6C519.805 149.36 519.909 149.184 520.085 149.072C520.261 148.944 520.573 148.88 521.021 148.88H522.173C522.605 148.88 522.901 148.944 523.061 149.072C523.221 149.184 523.301 149.336 523.301 149.528L521.861 163.472C521.829 163.808 521.869 164.048 521.981 164.192C522.109 164.32 522.301 164.384 522.557 164.384C522.733 164.384 522.877 164.36 522.989 164.312C523.117 164.264 523.205 164.24 523.253 164.24C523.381 164.24 523.445 164.336 523.445 164.528C523.445 164.592 523.437 164.744 523.421 164.984C523.405 165.208 523.357 165.528 523.277 165.944C523.197 166.392 522.925 166.712 522.461 166.904C522.013 167.096 521.581 167.192 521.165 167.192ZM528.194 167.192C527.266 167.192 526.522 166.936 525.962 166.424C525.418 165.896 525.21 164.976 525.338 163.664L526.202 155.168C526.25 154.656 526.754 154.4 527.714 154.4H528.386C528.866 154.4 529.218 154.48 529.442 154.64C529.682 154.784 529.786 154.952 529.754 155.144L528.89 163.472C528.858 163.808 528.898 164.048 529.01 164.192C529.138 164.32 529.33 164.384 529.586 164.384C529.762 164.384 529.906 164.36 530.018 164.312C530.146 164.264 530.234 164.24 530.282 164.24C530.41 164.24 530.474 164.336 530.474 164.528C530.474 164.592 530.466 164.744 530.45 164.984C530.434 165.208 530.386 165.528 530.306 165.944C530.226 166.392 529.954 166.712 529.49 166.904C529.042 167.096 528.61 167.192 528.194 167.192ZM528.194 153.224C527.57 153.224 527.122 153.16 526.85 153.032C526.594 152.904 526.474 152.712 526.49 152.456L526.682 150.584C526.714 150.328 526.874 150.136 527.162 150.008C527.45 149.88 527.914 149.816 528.554 149.816C529.162 149.816 529.602 149.88 529.874 150.008C530.146 150.136 530.266 150.328 530.234 150.584L530.042 152.456C529.994 152.968 529.378 153.224 528.194 153.224ZM535.409 167.192C534.929 167.192 534.481 167.128 534.065 167C533.665 166.872 533.321 166.664 533.033 166.376C532.761 166.088 532.561 165.712 532.433 165.248C532.305 164.768 532.273 164.192 532.337 163.52L532.985 157.256H532.433C531.921 157.256 531.713 156.856 531.809 156.056L531.857 155.648C531.953 154.848 532.241 154.448 532.721 154.448H533.321L533.777 152.264C533.841 151.96 533.985 151.744 534.209 151.616C534.449 151.472 534.777 151.4 535.193 151.4H535.721C536.201 151.4 536.545 151.488 536.753 151.664C536.961 151.824 537.049 152.048 537.017 152.336L536.825 154.448H537.929C538.185 154.448 538.361 154.544 538.457 154.736C538.553 154.928 538.577 155.232 538.529 155.648L538.481 156.056C538.385 156.856 538.105 157.256 537.641 157.256H536.537L535.889 163.472C535.857 163.776 535.905 164.008 536.033 164.168C536.177 164.312 536.377 164.384 536.633 164.384C536.889 164.384 537.081 164.36 537.209 164.312C537.353 164.264 537.449 164.24 537.497 164.24C537.625 164.24 537.689 164.336 537.689 164.528C537.689 164.592 537.681 164.744 537.665 164.984C537.649 165.208 537.601 165.528 537.521 165.944C537.441 166.392 537.169 166.712 536.705 166.904C536.257 167.096 535.825 167.192 535.409 167.192ZM541.908 171.944C540.98 171.944 540.516 171.784 540.516 171.464C540.516 171.32 540.564 171.168 540.66 171.008L543.3 165.536L543.396 170.384L539.916 155.648C539.9 155.52 539.876 155.4 539.844 155.288C539.812 155.176 539.796 155.088 539.796 155.024C539.796 154.832 539.892 154.68 540.084 154.568C540.276 154.456 540.66 154.4 541.236 154.4H542.1C542.42 154.4 542.7 154.44 542.94 154.52C543.196 154.584 543.348 154.712 543.396 154.904L544.332 159.344C544.396 159.616 544.46 160.04 544.524 160.616C544.588 161.192 544.652 161.736 544.716 162.248H544.812C544.972 161.736 545.14 161.192 545.316 160.616C545.508 160.024 545.66 159.6 545.772 159.344L547.668 154.904C547.748 154.712 547.908 154.584 548.148 154.52C548.404 154.44 548.708 154.4 549.06 154.4H549.636C550.132 154.4 550.484 154.448 550.692 154.544C550.916 154.624 551.028 154.744 551.028 154.904C551.028 155.016 550.988 155.168 550.908 155.36L543.708 171.44C543.628 171.632 543.46 171.76 543.204 171.824C542.964 171.904 542.668 171.944 542.316 171.944H541.908Z" fill="black"/>
<rect x="418" y="59" width="198" height="198" rx="99" stroke="black" stroke-width="2"/>
<rect x="113" y="327" width="198" height="198" rx="99" fill="#F2FFE2"/>
<path d="M145.208 421C144.888 421 144.656 420.944 144.512 420.832C144.368 420.704 144.312 420.488 144.344 420.184L145.952 404.92C146 404.408 146.504 404.152 147.464 404.152H148.304C148.448 404.152 148.632 404.168 148.856 404.2C149.08 404.216 149.28 404.28 149.456 404.392C149.632 404.488 149.704 404.656 149.672 404.896L148.304 417.856H153.656C153.912 417.856 154.088 417.96 154.184 418.168C154.296 418.376 154.328 418.752 154.28 419.296L154.256 419.56C154.208 420.104 154.104 420.48 153.944 420.688C153.784 420.896 153.576 421 153.32 421H145.208ZM160.337 421.192C159.953 421.192 159.497 421.16 158.969 421.096C158.457 421.032 157.953 420.928 157.457 420.784C156.961 420.64 156.553 420.448 156.233 420.208C156.073 420.08 155.945 419.928 155.849 419.752C155.769 419.56 155.729 419.256 155.729 418.84C155.729 418.248 155.761 417.816 155.825 417.544C155.889 417.256 155.969 417.072 156.065 416.992C156.177 416.896 156.273 416.848 156.353 416.848C156.449 416.848 156.593 416.912 156.785 417.04C156.993 417.152 157.241 417.28 157.529 417.424C157.849 417.584 158.217 417.728 158.633 417.856C159.049 417.984 159.521 418.048 160.049 418.048C160.401 418.048 160.761 418 161.129 417.904C161.497 417.808 161.809 417.624 162.065 417.352C162.337 417.08 162.473 416.696 162.473 416.2C162.473 415.832 162.353 415.52 162.113 415.264C161.889 414.992 161.593 414.752 161.225 414.544C160.857 414.32 160.449 414.104 160.001 413.896C159.425 413.608 158.849 413.296 158.273 412.96C157.713 412.608 157.241 412.16 156.857 411.616C156.473 411.072 156.281 410.376 156.281 409.528C156.281 408.472 156.465 407.592 156.833 406.888C157.201 406.168 157.689 405.6 158.297 405.184C158.905 404.768 159.577 404.472 160.313 404.296C161.049 404.104 161.785 404.008 162.521 404.008C163.417 404.008 164.185 404.104 164.825 404.296C165.481 404.472 165.961 404.696 166.265 404.968C166.537 405.192 166.673 405.416 166.673 405.64C166.673 405.848 166.585 406.12 166.409 406.456C166.233 406.792 166.025 407.096 165.785 407.368C165.545 407.64 165.329 407.776 165.137 407.776C165.073 407.776 164.985 407.752 164.873 407.704C164.777 407.656 164.649 407.6 164.489 407.536C164.281 407.456 164.017 407.376 163.697 407.296C163.377 407.216 162.985 407.176 162.521 407.176C161.833 407.176 161.313 407.264 160.961 407.44C160.625 407.616 160.401 407.824 160.289 408.064C160.193 408.304 160.145 408.512 160.145 408.688C160.145 409.072 160.257 409.392 160.481 409.648C160.705 409.904 161.001 410.128 161.369 410.32C161.753 410.512 162.169 410.712 162.617 410.92C163.337 411.24 163.977 411.624 164.537 412.072C165.097 412.504 165.537 413.008 165.857 413.584C166.177 414.144 166.337 414.792 166.337 415.528C166.337 416.648 166.153 417.576 165.785 418.312C165.417 419.048 164.929 419.624 164.321 420.04C163.729 420.456 163.081 420.752 162.377 420.928C161.689 421.104 161.009 421.192 160.337 421.192ZM169.289 421C168.969 421 168.737 420.928 168.593 420.784C168.465 420.64 168.417 420.368 168.449 419.968L169.985 405.16C170.049 404.52 170.401 404.2 171.041 404.2H176.417C177.921 404.2 179.177 404.472 180.185 405.016C181.209 405.544 181.985 406.32 182.513 407.344C183.041 408.368 183.305 409.632 183.305 411.136C183.305 412.72 183.097 414.128 182.681 415.36C182.281 416.592 181.705 417.624 180.953 418.456C180.201 419.288 179.289 419.92 178.217 420.352C177.161 420.784 175.977 421 174.665 421H169.289ZM172.361 417.856H174.977C175.665 417.856 176.281 417.72 176.825 417.448C177.385 417.16 177.865 416.752 178.265 416.224C178.665 415.68 178.969 415.008 179.177 414.208C179.385 413.408 179.489 412.496 179.489 411.472C179.489 410.576 179.361 409.824 179.105 409.216C178.865 408.592 178.489 408.128 177.977 407.824C177.481 407.504 176.857 407.344 176.105 407.344H173.489L172.361 417.856ZM191.287 421C190.967 421 190.735 420.944 190.591 420.832C190.447 420.704 190.391 420.488 190.423 420.184L192.031 404.92C192.079 404.408 192.583 404.152 193.543 404.152H194.383C194.527 404.152 194.711 404.168 194.935 404.2C195.159 404.216 195.359 404.28 195.535 404.392C195.711 404.488 195.783 404.656 195.751 404.896L194.383 417.856H199.735C199.991 417.856 200.167 417.96 200.263 418.168C200.375 418.376 200.407 418.752 200.359 419.296L200.335 419.56C200.287 420.104 200.183 420.48 200.023 420.688C199.863 420.896 199.655 421 199.399 421H191.287ZM204.784 421.192C203.856 421.192 203.112 420.936 202.552 420.424C202.008 419.896 201.8 418.976 201.928 417.664L202.792 409.168C202.84 408.656 203.344 408.4 204.304 408.4H204.976C205.456 408.4 205.808 408.48 206.032 408.64C206.272 408.784 206.376 408.952 206.344 409.144L205.48 417.472C205.448 417.808 205.488 418.048 205.6 418.192C205.728 418.32 205.92 418.384 206.176 418.384C206.352 418.384 206.496 418.36 206.608 418.312C206.736 418.264 206.824 418.24 206.872 418.24C207 418.24 207.064 418.336 207.064 418.528C207.064 418.592 207.056 418.744 207.04 418.984C207.024 419.208 206.976 419.528 206.896 419.944C206.816 420.392 206.544 420.712 206.08 420.904C205.632 421.096 205.2 421.192 204.784 421.192ZM204.784 407.224C204.16 407.224 203.712 407.16 203.44 407.032C203.184 406.904 203.064 406.712 203.08 406.456L203.272 404.584C203.304 404.328 203.464 404.136 203.752 404.008C204.04 403.88 204.504 403.816 205.144 403.816C205.752 403.816 206.192 403.88 206.464 404.008C206.736 404.136 206.856 404.328 206.824 404.584L206.632 406.456C206.584 406.968 205.968 407.224 204.784 407.224ZM216.223 425.944C215.743 425.944 215.391 425.864 215.167 425.704C214.959 425.56 214.855 425.392 214.855 425.2L215.407 419.824C215.055 420.224 214.639 420.552 214.159 420.808C213.679 421.064 213.135 421.192 212.527 421.192C211.887 421.192 211.303 421.08 210.775 420.856C210.263 420.632 209.815 420.304 209.431 419.872C209.063 419.424 208.775 418.88 208.567 418.24C208.375 417.584 208.279 416.832 208.279 415.984C208.279 414.448 208.519 413.104 208.999 411.952C209.479 410.784 210.143 409.88 210.991 409.24C211.855 408.584 212.847 408.256 213.967 408.256C214.655 408.256 215.247 408.4 215.743 408.688C216.239 408.976 216.615 409.248 216.871 409.504C216.967 409.216 217.055 409 217.135 408.856C217.215 408.696 217.351 408.584 217.543 408.52C217.735 408.44 218.031 408.4 218.431 408.4H218.719C219.199 408.4 219.551 408.456 219.775 408.568C219.999 408.664 220.111 408.808 220.111 409L218.407 425.176C218.359 425.688 217.855 425.944 216.895 425.944H216.223ZM213.871 418.288C214.127 418.288 214.367 418.224 214.591 418.096C214.815 417.968 215.015 417.808 215.191 417.616C215.383 417.408 215.559 417.184 215.719 416.944L216.055 413.8C216.119 413.32 216.215 412.728 216.343 412.024C216.487 411.32 216.639 410.672 216.799 410.08L216.943 412.312C216.815 412.152 216.647 411.976 216.439 411.784C216.247 411.592 216.015 411.424 215.743 411.28C215.471 411.136 215.151 411.064 214.783 411.064C214.335 411.064 213.927 411.168 213.559 411.376C213.207 411.568 212.903 411.864 212.647 412.264C212.391 412.664 212.199 413.16 212.071 413.752C211.943 414.328 211.879 415 211.879 415.768C211.879 416.312 211.951 416.776 212.095 417.16C212.255 417.528 212.479 417.808 212.767 418C213.071 418.192 213.439 418.288 213.871 418.288ZM224.969 421.192C223.897 421.192 223.073 420.928 222.497 420.4C221.937 419.856 221.721 418.944 221.849 417.664L222.689 409.168C222.737 408.656 223.241 408.4 224.201 408.4H224.873C225.353 408.4 225.705 408.48 225.929 408.64C226.169 408.784 226.273 408.952 226.241 409.144L225.449 416.848C225.401 417.344 225.481 417.704 225.689 417.928C225.913 418.152 226.257 418.264 226.721 418.264C227.025 418.264 227.305 418.2 227.561 418.072C227.817 417.928 228.049 417.76 228.257 417.568C228.465 417.36 228.641 417.16 228.785 416.968L229.601 409.168C229.649 408.656 230.153 408.4 231.113 408.4H231.785C232.265 408.4 232.617 408.48 232.841 408.64C233.081 408.784 233.185 408.952 233.153 409.144L232.289 417.472C232.257 417.808 232.297 418.048 232.409 418.192C232.537 418.32 232.729 418.384 232.985 418.384C233.161 418.384 233.305 418.36 233.417 418.312C233.545 418.264 233.633 418.24 233.681 418.24C233.809 418.24 233.873 418.336 233.873 418.528C233.873 418.592 233.865 418.744 233.849 418.984C233.833 419.208 233.785 419.528 233.705 419.944C233.625 420.392 233.353 420.712 232.889 420.904C232.441 421.096 232.009 421.192 231.593 421.192C230.665 421.192 229.945 420.96 229.433 420.496C228.937 420.016 228.697 419.24 228.713 418.168L229.313 418.552C229.105 418.952 228.777 419.36 228.329 419.776C227.897 420.176 227.385 420.512 226.793 420.784C226.217 421.056 225.609 421.192 224.969 421.192ZM238.088 421.192C237.16 421.192 236.416 420.936 235.856 420.424C235.312 419.896 235.104 418.976 235.232 417.664L236.096 409.168C236.144 408.656 236.648 408.4 237.608 408.4H238.28C238.76 408.4 239.112 408.48 239.336 408.64C239.576 408.784 239.68 408.952 239.648 409.144L238.784 417.472C238.752 417.808 238.792 418.048 238.904 418.192C239.032 418.32 239.224 418.384 239.48 418.384C239.656 418.384 239.8 418.36 239.912 418.312C240.04 418.264 240.128 418.24 240.176 418.24C240.304 418.24 240.368 418.336 240.368 418.528C240.368 418.592 240.36 418.744 240.344 418.984C240.328 419.208 240.28 419.528 240.2 419.944C240.12 420.392 239.848 420.712 239.384 420.904C238.936 421.096 238.504 421.192 238.088 421.192ZM238.088 407.224C237.464 407.224 237.016 407.16 236.744 407.032C236.488 406.904 236.368 406.712 236.384 406.456L236.576 404.584C236.608 404.328 236.768 404.136 237.056 404.008C237.344 403.88 237.808 403.816 238.448 403.816C239.056 403.816 239.496 403.88 239.768 404.008C240.04 404.136 240.16 404.328 240.128 404.584L239.936 406.456C239.888 406.968 239.272 407.224 238.088 407.224ZM245.592 421.192C244.968 421.192 244.4 421.08 243.888 420.856C243.392 420.632 242.96 420.304 242.592 419.872C242.24 419.424 241.96 418.88 241.752 418.24C241.56 417.584 241.464 416.832 241.464 415.984C241.464 414.448 241.696 413.104 242.16 411.952C242.64 410.784 243.296 409.88 244.128 409.24C244.976 408.584 245.944 408.256 247.032 408.256C247.592 408.256 248.088 408.368 248.52 408.592C248.968 408.8 249.328 409.016 249.6 409.24L250.2 403.672C250.248 403.16 250.752 402.904 251.712 402.904H252.384C252.864 402.904 253.216 402.984 253.44 403.144C253.68 403.304 253.784 403.496 253.752 403.72L252.312 417.472C252.28 417.808 252.32 418.048 252.432 418.192C252.56 418.32 252.752 418.384 253.008 418.384C253.184 418.384 253.328 418.36 253.44 418.312C253.568 418.264 253.656 418.24 253.704 418.24C253.832 418.24 253.896 418.336 253.896 418.528C253.896 418.592 253.888 418.744 253.872 418.984C253.856 419.208 253.808 419.528 253.728 419.944C253.648 420.392 253.376 420.712 252.912 420.904C252.464 421.096 252.032 421.192 251.616 421.192C250.88 421.192 250.28 421.048 249.816 420.76C249.352 420.456 249.032 419.984 248.856 419.344C248.52 419.888 248.064 420.336 247.488 420.688C246.928 421.024 246.296 421.192 245.592 421.192ZM246.936 418.288C247.208 418.288 247.456 418.224 247.68 418.096C247.904 417.968 248.112 417.8 248.304 417.592C248.496 417.368 248.672 417.128 248.832 416.872L249.36 411.64C249.168 411.48 248.944 411.344 248.688 411.232C248.448 411.12 248.168 411.064 247.848 411.064C247.416 411.064 247.024 411.168 246.672 411.376C246.336 411.568 246.048 411.864 245.808 412.264C245.568 412.664 245.384 413.16 245.256 413.752C245.128 414.328 245.064 415 245.064 415.768C245.064 416.6 245.216 417.232 245.52 417.664C245.84 418.08 246.312 418.288 246.936 418.288ZM258.01 421.192C257.082 421.192 256.338 420.936 255.778 420.424C255.234 419.896 255.026 418.976 255.154 417.664L256.018 409.168C256.066 408.656 256.57 408.4 257.53 408.4H258.202C258.682 408.4 259.034 408.48 259.258 408.64C259.498 408.784 259.602 408.952 259.57 409.144L258.706 417.472C258.674 417.808 258.714 418.048 258.826 418.192C258.954 418.32 259.146 418.384 259.402 418.384C259.578 418.384 259.722 418.36 259.834 418.312C259.962 418.264 260.05 418.24 260.098 418.24C260.226 418.24 260.29 418.336 260.29 418.528C260.29 418.592 260.282 418.744 260.266 418.984C260.25 419.208 260.202 419.528 260.122 419.944C260.042 420.392 259.77 420.712 259.306 420.904C258.858 421.096 258.426 421.192 258.01 421.192ZM258.01 407.224C257.386 407.224 256.938 407.16 256.666 407.032C256.41 406.904 256.29 406.712 256.306 406.456L256.498 404.584C256.53 404.328 256.69 404.136 256.978 404.008C257.266 403.88 257.73 403.816 258.37 403.816C258.978 403.816 259.418 403.88 259.69 404.008C259.962 404.136 260.082 404.328 260.05 404.584L259.858 406.456C259.81 406.968 259.194 407.224 258.01 407.224ZM265.226 421.192C264.746 421.192 264.298 421.128 263.882 421C263.482 420.872 263.138 420.664 262.85 420.376C262.578 420.088 262.378 419.712 262.25 419.248C262.122 418.768 262.09 418.192 262.154 417.52L262.802 411.256H262.25C261.738 411.256 261.53 410.856 261.626 410.056L261.674 409.648C261.77 408.848 262.058 408.448 262.538 408.448H263.138L263.594 406.264C263.658 405.96 263.802 405.744 264.026 405.616C264.266 405.472 264.594 405.4 265.01 405.4H265.538C266.018 405.4 266.362 405.488 266.57 405.664C266.778 405.824 266.866 406.048 266.834 406.336L266.642 408.448H267.746C268.002 408.448 268.178 408.544 268.274 408.736C268.37 408.928 268.394 409.232 268.346 409.648L268.298 410.056C268.202 410.856 267.922 411.256 267.458 411.256H266.354L265.706 417.472C265.674 417.776 265.722 418.008 265.85 418.168C265.994 418.312 266.194 418.384 266.45 418.384C266.706 418.384 266.898 418.36 267.026 418.312C267.17 418.264 267.266 418.24 267.314 418.24C267.442 418.24 267.506 418.336 267.506 418.528C267.506 418.592 267.498 418.744 267.482 418.984C267.466 419.208 267.418 419.528 267.338 419.944C267.258 420.392 266.986 420.712 266.522 420.904C266.074 421.096 265.642 421.192 265.226 421.192ZM271.725 425.944C270.797 425.944 270.333 425.784 270.333 425.464C270.333 425.32 270.381 425.168 270.477 425.008L273.117 419.536L273.213 424.384L269.733 409.648C269.717 409.52 269.693 409.4 269.661 409.288C269.629 409.176 269.613 409.088 269.613 409.024C269.613 408.832 269.709 408.68 269.901 408.568C270.093 408.456 270.477 408.4 271.053 408.4H271.917C272.237 408.4 272.517 408.44 272.757 408.52C273.013 408.584 273.165 408.712 273.213 408.904L274.149 413.344C274.213 413.616 274.277 414.04 274.341 414.616C274.405 415.192 274.469 415.736 274.533 416.248H274.629C274.789 415.736 274.957 415.192 275.133 414.616C275.325 414.024 275.477 413.6 275.589 413.344L277.485 408.904C277.565 408.712 277.725 408.584 277.965 408.52C278.221 408.44 278.525 408.4 278.877 408.4H279.453C279.949 408.4 280.301 408.448 280.509 408.544C280.733 408.624 280.845 408.744 280.845 408.904C280.845 409.016 280.805 409.168 280.725 409.36L273.525 425.44C273.445 425.632 273.277 425.76 273.021 425.824C272.781 425.904 272.485 425.944 272.133 425.944H271.725ZM161.954 449C161.634 449 161.402 448.928 161.258 448.784C161.13 448.64 161.082 448.368 161.114 447.968L162.65 433.16C162.714 432.52 163.066 432.2 163.706 432.2H169.082C170.586 432.2 171.842 432.472 172.85 433.016C173.874 433.544 174.65 434.32 175.178 435.344C175.706 436.368 175.97 437.632 175.97 439.136C175.97 440.72 175.762 442.128 175.346 443.36C174.946 444.592 174.37 445.624 173.618 446.456C172.866 447.288 171.954 447.92 170.882 448.352C169.826 448.784 168.642 449 167.33 449H161.954ZM165.026 445.856H167.642C168.33 445.856 168.946 445.72 169.49 445.448C170.05 445.16 170.53 444.752 170.93 444.224C171.33 443.68 171.634 443.008 171.842 442.208C172.05 441.408 172.154 440.496 172.154 439.472C172.154 438.576 172.026 437.824 171.77 437.216C171.53 436.592 171.154 436.128 170.642 435.824C170.146 435.504 169.522 435.344 168.77 435.344H166.154L165.026 445.856ZM180.057 449.192C179.129 449.192 178.385 448.936 177.825 448.424C177.281 447.896 177.073 446.976 177.201 445.664L178.065 437.168C178.113 436.656 178.617 436.4 179.577 436.4H180.249C180.729 436.4 181.081 436.48 181.305 436.64C181.545 436.784 181.649 436.952 181.617 437.144L180.753 445.472C180.721 445.808 180.761 446.048 180.873 446.192C181.001 446.32 181.193 446.384 181.449 446.384C181.625 446.384 181.769 446.36 181.881 446.312C182.009 446.264 182.097 446.24 182.145 446.24C182.273 446.24 182.337 446.336 182.337 446.528C182.337 446.592 182.329 446.744 182.313 446.984C182.297 447.208 182.249 447.528 182.169 447.944C182.089 448.392 181.817 448.712 181.353 448.904C180.905 449.096 180.473 449.192 180.057 449.192ZM180.057 435.224C179.433 435.224 178.985 435.16 178.713 435.032C178.457 434.904 178.337 434.712 178.353 434.456L178.545 432.584C178.577 432.328 178.737 432.136 179.025 432.008C179.313 431.88 179.777 431.816 180.417 431.816C181.025 431.816 181.465 431.88 181.737 432.008C182.009 432.136 182.129 432.328 182.097 432.584L181.905 434.456C181.857 434.968 181.241 435.224 180.057 435.224ZM186.793 449.192C186.489 449.192 186.137 449.152 185.737 449.072C185.337 449.008 184.953 448.904 184.585 448.76C184.233 448.616 183.937 448.432 183.697 448.208C183.457 447.984 183.337 447.712 183.337 447.392C183.337 446.72 183.393 446.248 183.505 445.976C183.617 445.704 183.737 445.568 183.865 445.568C183.993 445.568 184.169 445.64 184.393 445.784C184.633 445.912 184.929 446.048 185.281 446.192C185.633 446.32 186.041 446.384 186.505 446.384C187.033 446.384 187.425 446.312 187.681 446.168C187.953 446.024 188.089 445.776 188.089 445.424C188.089 445.136 187.993 444.904 187.801 444.728C187.609 444.536 187.361 444.368 187.057 444.224C186.753 444.08 186.433 443.928 186.097 443.768C185.569 443.512 185.137 443.232 184.801 442.928C184.465 442.608 184.217 442.248 184.057 441.848C183.897 441.448 183.817 441 183.817 440.504C183.817 439.544 184.025 438.752 184.441 438.128C184.857 437.504 185.425 437.04 186.145 436.736C186.865 436.416 187.673 436.256 188.569 436.256C188.905 436.256 189.273 436.28 189.673 436.328C190.073 436.376 190.457 436.456 190.825 436.568C191.193 436.664 191.489 436.808 191.713 437C191.953 437.192 192.073 437.432 192.073 437.72C192.073 437.864 192.001 438.08 191.857 438.368C191.713 438.656 191.537 438.92 191.329 439.16C191.137 439.4 190.961 439.52 190.801 439.52C190.641 439.52 190.425 439.44 190.153 439.28C189.881 439.12 189.441 439.04 188.833 439.04C188.401 439.04 188.065 439.112 187.825 439.256C187.585 439.4 187.465 439.624 187.465 439.928C187.465 440.232 187.553 440.48 187.729 440.672C187.921 440.848 188.169 441 188.473 441.128C188.777 441.256 189.097 441.392 189.433 441.536C189.817 441.696 190.185 441.928 190.537 442.232C190.889 442.52 191.177 442.872 191.401 443.288C191.625 443.704 191.737 444.184 191.737 444.728C191.737 445.704 191.521 446.528 191.089 447.2C190.673 447.856 190.089 448.352 189.337 448.688C188.601 449.024 187.753 449.192 186.793 449.192ZM197.187 449.192C196.707 449.192 196.259 449.128 195.843 449C195.443 448.872 195.099 448.664 194.811 448.376C194.539 448.088 194.339 447.712 194.211 447.248C194.083 446.768 194.051 446.192 194.115 445.52L194.763 439.256H194.211C193.699 439.256 193.491 438.856 193.587 438.056L193.635 437.648C193.731 436.848 194.019 436.448 194.499 436.448H195.099L195.555 434.264C195.619 433.96 195.763 433.744 195.987 433.616C196.227 433.472 196.555 433.4 196.971 433.4H197.499C197.979 433.4 198.323 433.488 198.531 433.664C198.739 433.824 198.827 434.048 198.795 434.336L198.603 436.448H199.707C199.963 436.448 200.139 436.544 200.235 436.736C200.331 436.928 200.355 437.232 200.307 437.648L200.259 438.056C200.163 438.856 199.883 439.256 199.419 439.256H198.315L197.667 445.472C197.635 445.776 197.683 446.008 197.811 446.168C197.955 446.312 198.155 446.384 198.411 446.384C198.667 446.384 198.859 446.36 198.987 446.312C199.131 446.264 199.227 446.24 199.275 446.24C199.403 446.24 199.467 446.336 199.467 446.528C199.467 446.592 199.459 446.744 199.443 446.984C199.427 447.208 199.379 447.528 199.299 447.944C199.219 448.392 198.947 448.712 198.483 448.904C198.035 449.096 197.603 449.192 197.187 449.192ZM202.942 449.048C202.462 449.048 202.11 448.968 201.886 448.808C201.662 448.648 201.558 448.44 201.574 448.184L202.39 440.432C202.438 439.952 202.47 439.544 202.486 439.208C202.502 438.872 202.51 438.6 202.51 438.392C202.51 438.104 202.502 437.888 202.486 437.744C202.47 437.584 202.462 437.448 202.462 437.336C202.494 437.032 202.71 436.824 203.11 436.712C203.526 436.584 204.182 436.52 205.078 436.52C205.43 436.52 205.67 436.68 205.798 437C205.926 437.304 205.998 437.648 206.014 438.032C206.318 437.6 206.686 437.2 207.118 436.832C207.566 436.448 208.126 436.256 208.798 436.256C209.15 436.256 209.406 436.328 209.566 436.472C209.726 436.6 209.822 436.752 209.854 436.928C209.902 437.088 209.926 437.232 209.926 437.36C209.926 437.616 209.87 437.92 209.758 438.272C209.646 438.624 209.51 438.936 209.35 439.208C209.206 439.464 209.078 439.592 208.966 439.592C208.854 439.592 208.734 439.56 208.606 439.496C208.478 439.416 208.27 439.376 207.982 439.376C207.614 439.376 207.246 439.488 206.878 439.712C206.51 439.92 206.182 440.216 205.894 440.6L205.126 448.232C205.078 448.776 204.574 449.048 203.614 449.048H202.942ZM213.315 449.192C212.387 449.192 211.643 448.936 211.083 448.424C210.539 447.896 210.331 446.976 210.459 445.664L211.323 437.168C211.371 436.656 211.875 436.4 212.835 436.4H213.507C213.987 436.4 214.339 436.48 214.563 436.64C214.803 436.784 214.907 436.952 214.875 437.144L214.011 445.472C213.979 445.808 214.019 446.048 214.131 446.192C214.259 446.32 214.451 446.384 214.707 446.384C214.883 446.384 215.027 446.36 215.139 446.312C215.267 446.264 215.355 446.24 215.403 446.24C215.531 446.24 215.595 446.336 215.595 446.528C215.595 446.592 215.587 446.744 215.571 446.984C215.555 447.208 215.507 447.528 215.427 447.944C215.347 448.392 215.075 448.712 214.611 448.904C214.163 449.096 213.731 449.192 213.315 449.192ZM213.315 435.224C212.691 435.224 212.243 435.16 211.971 435.032C211.715 434.904 211.595 434.712 211.611 434.456L211.803 432.584C211.835 432.328 211.995 432.136 212.283 432.008C212.571 431.88 213.035 431.816 213.675 431.816C214.283 431.816 214.723 431.88 214.995 432.008C215.267 432.136 215.387 432.328 215.355 432.584L215.163 434.456C215.115 434.968 214.499 435.224 213.315 435.224ZM222.834 449.192C222.146 449.192 221.554 449.048 221.058 448.76C220.578 448.472 220.202 448.2 219.93 447.944C219.85 448.216 219.762 448.432 219.666 448.592C219.586 448.752 219.45 448.864 219.258 448.928C219.066 448.992 218.77 449.032 218.37 449.048H218.082C217.602 449.048 217.242 448.992 217.002 448.88C216.778 448.768 216.674 448.6 216.69 448.376L218.466 431.672C218.514 431.16 219.018 430.904 219.978 430.904H220.65C221.13 430.904 221.474 430.984 221.682 431.144C221.906 431.288 222.018 431.456 222.018 431.648L221.37 437.624C221.722 437.208 222.146 436.88 222.642 436.64C223.138 436.384 223.682 436.256 224.274 436.256C224.93 436.256 225.522 436.368 226.05 436.592C226.594 436.816 227.058 437.152 227.442 437.6C227.826 438.032 228.122 438.576 228.33 439.232C228.538 439.872 228.642 440.616 228.642 441.464C228.642 443 228.394 444.352 227.898 445.52C227.418 446.672 226.738 447.576 225.858 448.232C224.994 448.872 223.986 449.192 222.834 449.192ZM222.018 446.384C222.498 446.384 222.922 446.288 223.29 446.096C223.658 445.888 223.97 445.584 224.226 445.184C224.498 444.784 224.698 444.296 224.826 443.72C224.97 443.128 225.042 442.448 225.042 441.68C225.042 441.104 224.962 440.632 224.802 440.264C224.658 439.88 224.434 439.6 224.13 439.424C223.826 439.248 223.426 439.16 222.93 439.16C222.674 439.16 222.434 439.224 222.21 439.352C222.002 439.464 221.802 439.624 221.61 439.832C221.418 440.04 221.242 440.264 221.082 440.504L220.746 443.648C220.714 444 220.666 444.352 220.602 444.704C220.554 445.056 220.506 445.408 220.458 445.76C220.65 445.92 220.874 446.064 221.13 446.192C221.386 446.32 221.682 446.384 222.018 446.384ZM233.57 449.192C232.498 449.192 231.674 448.928 231.098 448.4C230.538 447.856 230.322 446.944 230.45 445.664L231.29 437.168C231.338 436.656 231.842 436.4 232.802 436.4H233.474C233.954 436.4 234.306 436.48 234.53 436.64C234.77 436.784 234.874 436.952 234.842 437.144L234.05 444.848C234.002 445.344 234.082 445.704 234.29 445.928C234.514 446.152 234.858 446.264 235.322 446.264C235.626 446.264 235.906 446.2 236.162 446.072C236.418 445.928 236.65 445.76 236.858 445.568C237.066 445.36 237.242 445.16 237.386 444.968L238.202 437.168C238.25 436.656 238.754 436.4 239.714 436.4H240.386C240.866 436.4 241.218 436.48 241.442 436.64C241.682 436.784 241.786 436.952 241.754 437.144L240.89 445.472C240.858 445.808 240.898 446.048 241.01 446.192C241.138 446.32 241.33 446.384 241.586 446.384C241.762 446.384 241.906 446.36 242.018 446.312C242.146 446.264 242.234 446.24 242.282 446.24C242.41 446.24 242.474 446.336 242.474 446.528C242.474 446.592 242.466 446.744 242.45 446.984C242.434 447.208 242.386 447.528 242.306 447.944C242.226 448.392 241.954 448.712 241.49 448.904C241.042 449.096 240.61 449.192 240.194 449.192C239.266 449.192 238.546 448.96 238.034 448.496C237.538 448.016 237.298 447.24 237.314 446.168L237.914 446.552C237.706 446.952 237.378 447.36 236.93 447.776C236.498 448.176 235.986 448.512 235.394 448.784C234.818 449.056 234.21 449.192 233.57 449.192ZM247.554 449.192C247.074 449.192 246.626 449.128 246.21 449C245.81 448.872 245.466 448.664 245.178 448.376C244.906 448.088 244.706 447.712 244.578 447.248C244.45 446.768 244.418 446.192 244.482 445.52L245.13 439.256H244.578C244.066 439.256 243.858 438.856 243.954 438.056L244.002 437.648C244.098 436.848 244.386 436.448 244.866 436.448H245.466L245.922 434.264C245.986 433.96 246.13 433.744 246.354 433.616C246.594 433.472 246.922 433.4 247.338 433.4H247.866C248.346 433.4 248.69 433.488 248.898 433.664C249.106 433.824 249.194 434.048 249.162 434.336L248.97 436.448H250.074C250.33 436.448 250.506 436.544 250.602 436.736C250.698 436.928 250.722 437.232 250.674 437.648L250.626 438.056C250.53 438.856 250.25 439.256 249.786 439.256H248.682L248.034 445.472C248.002 445.776 248.05 446.008 248.178 446.168C248.322 446.312 248.522 446.384 248.778 446.384C249.034 446.384 249.226 446.36 249.354 446.312C249.498 446.264 249.594 446.24 249.642 446.24C249.77 446.24 249.834 446.336 249.834 446.528C249.834 446.592 249.826 446.744 249.81 446.984C249.794 447.208 249.746 447.528 249.666 447.944C249.586 448.392 249.314 448.712 248.85 448.904C248.402 449.096 247.97 449.192 247.554 449.192ZM258.685 436.256C259.661 436.256 260.453 436.376 261.061 436.616C261.685 436.856 262.157 437.16 262.477 437.528C262.813 437.896 263.037 438.28 263.149 438.68C263.277 439.064 263.341 439.416 263.341 439.736C263.341 440.536 263.181 441.216 262.861 441.776C262.557 442.336 262.149 442.792 261.637 443.144C261.141 443.48 260.589 443.728 259.981 443.888C259.373 444.048 258.773 444.128 258.181 444.128C257.429 444.128 256.797 444.096 256.285 444.032C255.789 443.968 255.309 443.896 254.845 443.816L255.685 442.616V443.6C255.685 444.352 255.789 444.936 255.997 445.352C256.221 445.752 256.517 446.024 256.885 446.168C257.269 446.312 257.709 446.384 258.205 446.384C258.845 446.384 259.429 446.296 259.957 446.12C260.485 445.944 260.925 445.768 261.277 445.592C261.629 445.416 261.845 445.328 261.925 445.328C261.973 445.328 262.013 445.344 262.045 445.376C262.093 445.408 262.117 445.504 262.117 445.664C262.117 445.952 262.101 446.288 262.069 446.672C262.037 447.04 261.989 447.32 261.925 447.512C261.829 447.848 261.621 448.128 261.301 448.352C260.981 448.56 260.605 448.728 260.173 448.856C259.757 448.968 259.333 449.048 258.901 449.096C258.469 449.16 258.085 449.192 257.749 449.192C256.773 449.192 255.925 449.072 255.205 448.832C254.501 448.576 253.917 448.224 253.453 447.776C252.989 447.312 252.645 446.76 252.421 446.12C252.197 445.464 252.085 444.728 252.085 443.912C252.085 442.056 252.389 440.568 252.997 439.448C253.605 438.328 254.405 437.52 255.397 437.024C256.405 436.512 257.501 436.256 258.685 436.256ZM258.445 439.064C257.709 439.064 257.133 439.328 256.717 439.856C256.317 440.368 256.029 441 255.853 441.752H257.005C257.453 441.752 257.837 441.72 258.157 441.656C258.493 441.592 258.773 441.512 258.997 441.416C259.221 441.304 259.397 441.184 259.525 441.056C259.653 440.912 259.741 440.768 259.789 440.624C259.853 440.48 259.885 440.336 259.885 440.192C259.885 439.792 259.749 439.504 259.477 439.328C259.205 439.152 258.861 439.064 258.445 439.064Z" fill="black"/>
<rect x="113" y="327" width="198" height="198" rx="99" stroke="black" stroke-width="2"/>
<rect x="723" y="327" width="198" height="198" rx="99" fill="#F2FFE2"/>
<path d="M754.394 435.216C753.818 435.216 753.29 435.104 752.81 434.88C752.33 434.656 751.914 434.328 751.562 433.896C751.226 433.448 750.962 432.904 750.77 432.264C750.594 431.608 750.506 430.856 750.506 430.008C750.506 428.472 750.73 427.128 751.178 425.976C751.626 424.808 752.25 423.904 753.05 423.264C753.866 422.608 754.794 422.28 755.834 422.28C756.522 422.28 757.114 422.432 757.61 422.736C758.106 423.04 758.482 423.312 758.738 423.552C758.834 423.264 758.922 423.04 759.002 422.88C759.082 422.72 759.218 422.608 759.41 422.544C759.602 422.464 759.898 422.424 760.298 422.424H760.586C761.066 422.424 761.418 422.48 761.642 422.592C761.882 422.704 761.986 422.888 761.954 423.144L761.114 431.472C761.082 431.808 761.122 432.048 761.234 432.192C761.362 432.32 761.554 432.384 761.81 432.384C761.986 432.384 762.13 432.36 762.242 432.312C762.37 432.264 762.458 432.24 762.506 432.24C762.634 432.24 762.698 432.336 762.698 432.528C762.698 432.592 762.69 432.744 762.674 432.984C762.658 433.208 762.61 433.528 762.53 433.944C762.45 434.392 762.178 434.712 761.714 434.904C761.266 435.096 760.834 435.192 760.418 435.192C759.682 435.192 759.082 435.048 758.618 434.76C758.154 434.472 757.834 434.008 757.658 433.368C757.322 433.896 756.866 434.336 756.29 434.688C755.73 435.04 755.098 435.216 754.394 435.216ZM755.738 432.312C755.994 432.312 756.234 432.248 756.458 432.12C756.682 431.992 756.89 431.824 757.082 431.616C757.274 431.392 757.45 431.16 757.61 430.92L757.946 427.68C757.994 427.184 758.034 426.8 758.066 426.528C758.114 426.256 758.17 425.992 758.234 425.736C758.026 425.56 757.794 425.408 757.538 425.28C757.282 425.152 756.986 425.088 756.65 425.088C756.122 425.088 755.666 425.272 755.282 425.64C754.898 425.992 754.602 426.52 754.394 427.224C754.202 427.912 754.106 428.768 754.106 429.792C754.106 430.336 754.162 430.8 754.274 431.184C754.402 431.552 754.586 431.832 754.826 432.024C755.066 432.216 755.37 432.312 755.738 432.312ZM770.88 435.192C768.736 435.192 767.096 434.72 765.96 433.776C764.84 432.832 764.368 431.472 764.544 429.696L765.624 418.92C765.672 418.408 766.184 418.152 767.16 418.152H767.976C768.488 418.152 768.848 418.224 769.056 418.368C769.264 418.496 769.352 418.68 769.32 418.92L768.264 429.264C768.184 430.128 768.384 430.808 768.864 431.304C769.36 431.8 770.144 432.048 771.216 432.048C772.304 432.048 773.152 431.808 773.76 431.328C774.368 430.832 774.72 430.104 774.816 429.144L775.872 418.92C775.92 418.408 776.432 418.152 777.408 418.152H778.2C778.712 418.152 779.072 418.224 779.28 418.368C779.488 418.496 779.576 418.68 779.544 418.92L778.464 429.384C778.272 431.224 777.504 432.656 776.16 433.68C774.832 434.688 773.072 435.192 770.88 435.192ZM785.326 435.192C784.942 435.192 784.486 435.16 783.958 435.096C783.446 435.032 782.942 434.928 782.446 434.784C781.95 434.64 781.542 434.448 781.222 434.208C781.062 434.08 780.934 433.928 780.838 433.752C780.758 433.56 780.718 433.256 780.718 432.84C780.718 432.248 780.75 431.816 780.814 431.544C780.878 431.256 780.958 431.072 781.054 430.992C781.166 430.896 781.262 430.848 781.342 430.848C781.438 430.848 781.582 430.912 781.774 431.04C781.982 431.152 782.23 431.28 782.518 431.424C782.838 431.584 783.206 431.728 783.622 431.856C784.038 431.984 784.51 432.048 785.038 432.048C785.39 432.048 785.75 432 786.118 431.904C786.486 431.808 786.798 431.624 787.054 431.352C787.326 431.08 787.462 430.696 787.462 430.2C787.462 429.832 787.342 429.52 787.102 429.264C786.878 428.992 786.582 428.752 786.214 428.544C785.846 428.32 785.438 428.104 784.99 427.896C784.414 427.608 783.838 427.296 783.262 426.96C782.702 426.608 782.23 426.16 781.846 425.616C781.462 425.072 781.27 424.376 781.27 423.528C781.27 422.472 781.454 421.592 781.822 420.888C782.19 420.168 782.678 419.6 783.286 419.184C783.894 418.768 784.566 418.472 785.302 418.296C786.038 418.104 786.774 418.008 787.51 418.008C788.406 418.008 789.174 418.104 789.814 418.296C790.47 418.472 790.95 418.696 791.254 418.968C791.526 419.192 791.662 419.416 791.662 419.64C791.662 419.848 791.574 420.12 791.398 420.456C791.222 420.792 791.014 421.096 790.774 421.368C790.534 421.64 790.318 421.776 790.126 421.776C790.062 421.776 789.974 421.752 789.862 421.704C789.766 421.656 789.638 421.6 789.478 421.536C789.27 421.456 789.006 421.376 788.686 421.296C788.366 421.216 787.974 421.176 787.51 421.176C786.822 421.176 786.302 421.264 785.95 421.44C785.614 421.616 785.39 421.824 785.278 422.064C785.182 422.304 785.134 422.512 785.134 422.688C785.134 423.072 785.246 423.392 785.47 423.648C785.694 423.904 785.99 424.128 786.358 424.32C786.742 424.512 787.158 424.712 787.606 424.92C788.326 425.24 788.966 425.624 789.526 426.072C790.086 426.504 790.526 427.008 790.846 427.584C791.166 428.144 791.326 428.792 791.326 429.528C791.326 430.648 791.142 431.576 790.774 432.312C790.406 433.048 789.918 433.624 789.31 434.04C788.718 434.456 788.07 434.752 787.366 434.928C786.678 435.104 785.998 435.192 785.326 435.192ZM794.278 435C793.958 435 793.726 434.928 793.582 434.784C793.454 434.64 793.406 434.368 793.438 433.968L794.974 419.16C795.038 418.52 795.39 418.2 796.03 418.2H801.406C802.91 418.2 804.166 418.472 805.174 419.016C806.198 419.544 806.974 420.32 807.502 421.344C808.03 422.368 808.294 423.632 808.294 425.136C808.294 426.72 808.086 428.128 807.67 429.36C807.27 430.592 806.694 431.624 805.942 432.456C805.19 433.288 804.278 433.92 803.206 434.352C802.15 434.784 800.966 435 799.654 435H794.278ZM797.35 431.856H799.966C800.654 431.856 801.27 431.72 801.814 431.448C802.374 431.16 802.854 430.752 803.254 430.224C803.654 429.68 803.958 429.008 804.166 428.208C804.374 427.408 804.478 426.496 804.478 425.472C804.478 424.576 804.35 423.824 804.094 423.216C803.854 422.592 803.478 422.128 802.966 421.824C802.47 421.504 801.846 421.344 801.094 421.344H798.478L797.35 431.856ZM820.067 435.048C819.939 435.048 819.755 435.032 819.515 435C819.291 434.968 819.091 434.888 818.915 434.76C818.755 434.632 818.691 434.432 818.723 434.16L820.067 421.344H816.275C816.019 421.344 815.835 421.24 815.723 421.032C815.627 420.824 815.603 420.448 815.651 419.904L815.675 419.64C815.723 419.096 815.827 418.72 815.987 418.512C816.147 418.304 816.355 418.2 816.611 418.2H827.891C828.147 418.2 828.323 418.304 828.419 418.512C828.531 418.72 828.563 419.096 828.515 419.64L828.491 419.904C828.443 420.448 828.339 420.824 828.179 421.032C828.019 421.24 827.811 421.344 827.555 421.344H823.787L822.419 434.28C822.371 434.792 821.867 435.048 820.907 435.048H820.067ZM828.305 435.048C827.825 435.048 827.473 434.968 827.249 434.808C827.025 434.648 826.921 434.44 826.937 434.184L827.753 426.432C827.801 425.952 827.833 425.544 827.849 425.208C827.865 424.872 827.873 424.6 827.873 424.392C827.873 424.104 827.865 423.888 827.849 423.744C827.833 423.584 827.825 423.448 827.825 423.336C827.857 423.032 828.073 422.824 828.473 422.712C828.889 422.584 829.545 422.52 830.441 422.52C830.793 422.52 831.033 422.68 831.161 423C831.289 423.304 831.361 423.648 831.377 424.032C831.681 423.6 832.049 423.2 832.481 422.832C832.929 422.448 833.489 422.256 834.161 422.256C834.513 422.256 834.769 422.328 834.929 422.472C835.089 422.6 835.185 422.752 835.217 422.928C835.265 423.088 835.289 423.232 835.289 423.36C835.289 423.616 835.233 423.92 835.121 424.272C835.009 424.624 834.873 424.936 834.713 425.208C834.569 425.464 834.441 425.592 834.329 425.592C834.217 425.592 834.097 425.56 833.969 425.496C833.841 425.416 833.633 425.376 833.345 425.376C832.977 425.376 832.609 425.488 832.241 425.712C831.873 425.92 831.545 426.216 831.257 426.6L830.489 434.232C830.441 434.776 829.937 435.048 828.977 435.048H828.305ZM839.073 435.216C838.497 435.216 837.969 435.104 837.489 434.88C837.009 434.656 836.593 434.328 836.241 433.896C835.905 433.448 835.641 432.904 835.449 432.264C835.273 431.608 835.185 430.856 835.185 430.008C835.185 428.472 835.409 427.128 835.857 425.976C836.305 424.808 836.929 423.904 837.729 423.264C838.545 422.608 839.473 422.28 840.513 422.28C841.201 422.28 841.793 422.432 842.289 422.736C842.785 423.04 843.161 423.312 843.417 423.552C843.513 423.264 843.601 423.04 843.681 422.88C843.761 422.72 843.897 422.608 844.089 422.544C844.281 422.464 844.577 422.424 844.977 422.424H845.265C845.745 422.424 846.097 422.48 846.321 422.592C846.561 422.704 846.665 422.888 846.633 423.144L845.793 431.472C845.761 431.808 845.801 432.048 845.913 432.192C846.041 432.32 846.233 432.384 846.489 432.384C846.665 432.384 846.809 432.36 846.921 432.312C847.049 432.264 847.137 432.24 847.185 432.24C847.313 432.24 847.377 432.336 847.377 432.528C847.377 432.592 847.369 432.744 847.353 432.984C847.337 433.208 847.289 433.528 847.209 433.944C847.129 434.392 846.857 434.712 846.393 434.904C845.945 435.096 845.513 435.192 845.097 435.192C844.361 435.192 843.761 435.048 843.297 434.76C842.833 434.472 842.513 434.008 842.337 433.368C842.001 433.896 841.545 434.336 840.969 434.688C840.409 435.04 839.777 435.216 839.073 435.216ZM840.417 432.312C840.673 432.312 840.913 432.248 841.137 432.12C841.361 431.992 841.569 431.824 841.761 431.616C841.953 431.392 842.129 431.16 842.289 430.92L842.625 427.68C842.673 427.184 842.713 426.8 842.745 426.528C842.793 426.256 842.849 425.992 842.913 425.736C842.705 425.56 842.473 425.408 842.217 425.28C841.961 425.152 841.665 425.088 841.329 425.088C840.801 425.088 840.345 425.272 839.961 425.64C839.577 425.992 839.281 426.52 839.073 427.224C838.881 427.912 838.785 428.768 838.785 429.792C838.785 430.336 838.841 430.8 838.953 431.184C839.081 431.552 839.265 431.832 839.505 432.024C839.745 432.216 840.049 432.312 840.417 432.312ZM852.44 435.192C851.816 435.192 851.248 435.08 850.736 434.856C850.24 434.632 849.808 434.304 849.44 433.872C849.088 433.424 848.808 432.88 848.6 432.24C848.408 431.584 848.312 430.832 848.312 429.984C848.312 428.448 848.544 427.104 849.008 425.952C849.488 424.784 850.144 423.88 850.976 423.24C851.824 422.584 852.792 422.256 853.88 422.256C854.44 422.256 854.936 422.368 855.368 422.592C855.816 422.8 856.176 423.016 856.448 423.24L857.048 417.672C857.096 417.16 857.6 416.904 858.56 416.904H859.232C859.712 416.904 860.064 416.984 860.288 417.144C860.528 417.304 860.632 417.496 860.6 417.72L859.16 431.472C859.128 431.808 859.168 432.048 859.28 432.192C859.408 432.32 859.6 432.384 859.856 432.384C860.032 432.384 860.176 432.36 860.288 432.312C860.416 432.264 860.504 432.24 860.552 432.24C860.68 432.24 860.744 432.336 860.744 432.528C860.744 432.592 860.736 432.744 860.72 432.984C860.704 433.208 860.656 433.528 860.576 433.944C860.496 434.392 860.224 434.712 859.76 434.904C859.312 435.096 858.88 435.192 858.464 435.192C857.728 435.192 857.128 435.048 856.664 434.76C856.2 434.456 855.88 433.984 855.704 433.344C855.368 433.888 854.912 434.336 854.336 434.688C853.776 435.024 853.144 435.192 852.44 435.192ZM853.784 432.288C854.056 432.288 854.304 432.224 854.528 432.096C854.752 431.968 854.96 431.8 855.152 431.592C855.344 431.368 855.52 431.128 855.68 430.872L856.208 425.64C856.016 425.48 855.792 425.344 855.536 425.232C855.296 425.12 855.016 425.064 854.696 425.064C854.264 425.064 853.872 425.168 853.52 425.376C853.184 425.568 852.896 425.864 852.656 426.264C852.416 426.664 852.232 427.16 852.104 427.752C851.976 428.328 851.912 429 851.912 429.768C851.912 430.6 852.064 431.232 852.368 431.664C852.688 432.08 853.16 432.288 853.784 432.288ZM864.858 435.192C863.93 435.192 863.186 434.936 862.626 434.424C862.082 433.896 861.874 432.976 862.002 431.664L862.866 423.168C862.914 422.656 863.418 422.4 864.378 422.4H865.05C865.53 422.4 865.882 422.48 866.106 422.64C866.346 422.784 866.45 422.952 866.418 423.144L865.554 431.472C865.522 431.808 865.562 432.048 865.674 432.192C865.802 432.32 865.994 432.384 866.25 432.384C866.426 432.384 866.57 432.36 866.682 432.312C866.81 432.264 866.898 432.24 866.946 432.24C867.074 432.24 867.138 432.336 867.138 432.528C867.138 432.592 867.13 432.744 867.114 432.984C867.098 433.208 867.05 433.528 866.97 433.944C866.89 434.392 866.618 434.712 866.154 434.904C865.706 435.096 865.274 435.192 864.858 435.192ZM864.858 421.224C864.234 421.224 863.786 421.16 863.514 421.032C863.258 420.904 863.138 420.712 863.154 420.456L863.346 418.584C863.378 418.328 863.538 418.136 863.826 418.008C864.114 417.88 864.578 417.816 865.218 417.816C865.826 417.816 866.266 417.88 866.538 418.008C866.81 418.136 866.93 418.328 866.898 418.584L866.706 420.456C866.658 420.968 866.042 421.224 864.858 421.224ZM878.265 435.192C877.337 435.192 876.601 434.936 876.057 434.424C875.513 433.896 875.297 432.976 875.409 431.664L875.889 426.624C875.937 426.112 875.849 425.744 875.625 425.52C875.417 425.296 875.081 425.184 874.617 425.184C874.313 425.184 874.025 425.264 873.753 425.424C873.481 425.568 873.241 425.752 873.033 425.976C872.825 426.2 872.649 426.424 872.505 426.648L871.737 434.28C871.689 434.792 871.185 435.048 870.225 435.048H869.553C869.073 435.048 868.721 434.976 868.497 434.832C868.273 434.672 868.169 434.496 868.185 434.304L869.001 426.312C869.033 426.04 869.057 425.752 869.073 425.448C869.089 425.128 869.097 424.888 869.097 424.728C869.097 424.44 869.089 424.192 869.073 423.984C869.057 423.76 869.049 423.56 869.049 423.384C869.049 423.208 869.169 423.056 869.409 422.928C869.665 422.8 870.001 422.704 870.417 422.64C870.849 422.56 871.321 422.52 871.833 422.52C872.153 422.52 872.361 422.72 872.457 423.12C872.569 423.504 872.625 423.92 872.625 424.368C872.625 424.592 872.617 424.808 872.601 425.016C872.585 425.224 872.569 425.392 872.553 425.52L872.169 424.848C872.329 424.464 872.617 424.072 873.033 423.672C873.465 423.272 873.977 422.936 874.569 422.664C875.161 422.392 875.761 422.256 876.369 422.256C877.441 422.256 878.257 422.528 878.817 423.072C879.393 423.6 879.617 424.504 879.489 425.784L878.961 431.472C878.929 431.808 878.969 432.048 879.081 432.192C879.209 432.32 879.401 432.384 879.657 432.384C879.833 432.384 879.977 432.36 880.089 432.312C880.217 432.264 880.305 432.24 880.353 432.24C880.481 432.24 880.545 432.336 880.545 432.528C880.545 432.592 880.537 432.744 880.521 432.984C880.505 433.208 880.457 433.528 880.377 433.944C880.297 434.392 880.025 434.712 879.561 434.904C879.113 435.096 878.681 435.192 878.265 435.192ZM886.321 440.088C885.505 440.088 884.761 440.016 884.089 439.872C883.417 439.728 882.881 439.528 882.481 439.272C882.081 439.016 881.881 438.72 881.881 438.384C881.881 437.568 881.929 437.016 882.025 436.728C882.137 436.44 882.249 436.296 882.361 436.296C882.457 436.296 882.641 436.376 882.913 436.536C883.185 436.696 883.545 436.856 883.993 437.016C884.441 437.192 884.977 437.28 885.601 437.28C886.529 437.28 887.257 437.008 887.785 436.464C888.313 435.936 888.625 435.184 888.721 434.208L888.961 431.88L889.345 432.648C889.041 433.24 888.585 433.768 887.977 434.232C887.369 434.68 886.665 434.904 885.865 434.904C885.241 434.904 884.673 434.8 884.161 434.592C883.665 434.368 883.233 434.048 882.865 433.632C882.513 433.2 882.233 432.672 882.025 432.048C881.833 431.424 881.737 430.704 881.737 429.888C881.737 428.368 881.969 427.04 882.433 425.904C882.913 424.752 883.569 423.856 884.401 423.216C885.249 422.576 886.217 422.256 887.305 422.256C887.977 422.256 888.561 422.408 889.057 422.712C889.553 423 889.929 423.264 890.185 423.504C890.281 423.216 890.369 423 890.449 422.856C890.529 422.696 890.665 422.584 890.857 422.52C891.049 422.44 891.345 422.4 891.745 422.4H892.033C892.513 422.4 892.865 422.456 893.089 422.568C893.313 422.664 893.425 422.808 893.425 423L892.441 432.768C892.281 434.384 891.953 435.736 891.457 436.824C890.977 437.912 890.313 438.728 889.465 439.272C888.617 439.816 887.569 440.088 886.321 440.088ZM887.209 432C887.465 432 887.705 431.936 887.929 431.808C888.153 431.68 888.361 431.512 888.553 431.304C888.745 431.08 888.921 430.848 889.081 430.608L889.393 427.8C889.441 427.4 889.481 427.024 889.513 426.672C889.561 426.32 889.617 425.992 889.681 425.688C889.473 425.512 889.241 425.368 888.985 425.256C888.729 425.128 888.441 425.064 888.121 425.064C887.689 425.064 887.297 425.168 886.945 425.376C886.609 425.568 886.321 425.856 886.081 426.24C885.841 426.624 885.657 427.104 885.529 427.68C885.401 428.256 885.337 428.92 885.337 429.672C885.337 430.184 885.401 430.616 885.529 430.968C885.673 431.304 885.881 431.56 886.153 431.736C886.441 431.912 886.793 432 887.209 432Z" fill="black"/>
<rect x="723" y="327" width="198" height="198" rx="99" stroke="black" stroke-width="2"/>
<path d="M279 353L438 218" stroke="black" stroke-width="2"/>
<path d="M312 426L723 426" stroke="black" stroke-width="2"/>
<path d="M756 353L597 218" stroke="black" stroke-width="2"/>
<rect x="1" y="1" width="1032" height="602" rx="23" stroke="black" stroke-width="2"/>
</svg>
