<svg width="24" height="25" viewBox="0 0 24 25" fill="none" xmlns="http://www.w3.org/2000/svg">
<path fill-rule="evenodd" clip-rule="evenodd" d="M13.914 15.08C13.7537 15.1191 13.5923 15.1538 13.43 15.184C12.5494 15.3498 11.6453 15.3464 10.766 15.174C10.612 15.144 10.394 15.091 10.113 15.016L9.192 16.213C6.919 16.14 6.055 14.617 6.055 14.617C6.055 11.236 7.536 8.495 7.536 8.495C9.017 7.362 10.426 7.393 10.426 7.393L10.829 7.918C10.8661 7.91279 10.9035 7.90946 10.941 7.908C11.7092 7.80617 12.4877 7.80954 13.255 7.918L13.697 7.393C13.697 7.393 15.107 7.362 16.587 8.496C16.587 8.496 18.069 11.236 18.069 14.617C18.069 14.617 17.194 16.139 14.921 16.213L13.914 15.08ZM10.076 11.5C9.475 11.5 9 11.95 9 12.5C9 13.05 9.485 13.5 10.076 13.5C10.676 13.5 11.151 13.05 11.151 12.5C11.161 11.95 10.677 11.5 10.076 11.5ZM13.924 11.5C13.324 11.5 12.849 11.95 12.849 12.5C12.849 13.05 13.334 13.5 13.924 13.5C14.525 13.5 15 13.05 15 12.5C15 11.95 14.525 11.5 13.924 11.5Z" fill="black" />
<path d="M21 23.5L16.01 18.5H19V4.5H5V18.5H16.003L16.573 20.5H5C4.46957 20.5 3.96086 20.2893 3.58579 19.9142C3.21071 19.5391 3 19.0304 3 18.5V4.5C3 3.96957 3.21071 3.46086 3.58579 3.08579C3.96086 2.71071 4.46957 2.5 5 2.5H19C19.5304 2.5 20.0391 2.71071 20.4142 3.08579C20.7893 3.46086 21 3.96957 21 4.5V23.5Z" fill="black" />
</svg>
