<svg width="138" height="41" viewBox="0 0 138 41" fill="none" xmlns="http://www.w3.org/2000/svg">
<path d="M22.9023 13.318C18.904 6.63561 13.8011 0.5 13.8011 0.5C13.8011 0.5 8.68164 6.65218 4.67776 13.3511L13.7735 22.2922L22.9023 13.318Z" fill="black"/>
<path d="M24.2553 15.6816V17.7028L16.7722 25.2522V40.1577C15.9603 40.351 15.1209 40.467 14.2649 40.5001V35.9937H14.3312V23.2089L23.4545 14.2512C23.7306 14.7262 23.9957 15.2066 24.2553 15.6816Z" fill="black"/>
<path d="M2.24774 17.8188V18.1336L9.73085 25.683V39.8429C8.87485 39.5502 8.04646 39.1691 7.26777 38.7108L7.2236 27.4668L0.872614 21.0992C1.24263 20.0444 1.70652 18.9399 2.24774 17.8188Z" fill="black"/>
<path d="M0 25.418C0 24.4571 0.193292 23.3802 0.519126 22.2315L6.17979 27.8977L6.21292 38.0206C5.30722 37.3689 4.47882 36.6013 3.73879 35.7398V30.2889H2.6895V34.3646C0.999588 31.8629 0 28.7702 0 25.418Z" fill="black"/>
<path d="M4.13089 14.2844C3.84372 14.7814 3.56205 15.2784 3.29145 15.781V17.7029L10.7746 25.2523V40.1412C11.5643 40.3345 12.3816 40.456 13.2156 40.4946V23.2089L4.13089 14.2844Z" fill="black"/>
<path d="M25.2989 17.7082C25.8622 18.868 26.3482 20.0056 26.7292 21.0936L20.3838 27.4667L20.3451 38.7107C19.5443 39.1801 18.6994 39.5667 17.8158 39.8594V25.6829L25.2989 18.1335V17.7082Z" fill="black"/>
<path d="M21.4333 27.9032L21.3947 38.0206C22.3556 37.3302 23.2282 36.5129 24.0013 35.5851V30.2889H25.0506V34.1547C26.6577 31.6861 27.6021 28.6763 27.6021 25.418C27.6021 24.4516 27.4088 23.3746 27.083 22.2204L21.4333 27.9032Z" fill="black"/>
<path d="M58.4402 17.1396C55.955 17.1396 54.6462 18.3712 54.6462 20.8564V27.0306C54.6462 29.5158 56.0324 30.7473 58.4402 30.7473H67.9888C70.3966 30.7473 71.6834 29.4385 71.6834 27.0306V24.0871C71.6834 23.568 71.3741 23.2421 70.855 23.2421H63.8689C63.3498 23.2421 63.0019 23.568 63.0019 24.0871V25.3186C63.0019 25.8377 63.3498 26.1636 63.8689 26.1636H68.4858V26.8373C68.4858 27.3012 68.3864 27.4945 68.2925 27.5884C68.1986 27.7209 67.9888 27.7983 67.5249 27.7983H58.9207C58.4402 27.7983 58.1862 27.6823 58.0536 27.5497C57.9211 27.4559 57.8438 27.2018 57.8438 26.8373V21.0276C57.8438 20.6631 57.9211 20.409 58.0536 20.3151C58.1917 20.1771 58.4402 20.0832 58.9207 20.0832H71.5067C71.6006 20.0832 71.6227 20.0445 71.584 19.9893C71.3355 17.9846 69.8886 17.1396 67.9667 17.1396H58.4402Z" fill="black"/>
<path fill-rule="evenodd" clip-rule="evenodd" d="M42.386 17.703L34.6654 29.5766C34.6514 29.6114 34.6361 29.6445 34.621 29.677C34.5764 29.7732 34.5342 29.8641 34.5383 29.9797C34.5383 30.2282 34.6377 30.4215 34.8476 30.5762C35.0022 30.6314 35.1348 30.6701 35.2508 30.6701H37.2334C37.3081 30.6701 37.4344 30.6339 37.6173 30.5817L37.6365 30.5762C37.8464 30.4381 37.9624 30.2835 38.0397 30.1509L39.0779 28.5549C39.0779 28.5383 39.0945 28.5383 39.1331 28.5383H49.0849C49.1014 28.5383 49.1235 28.5383 49.1401 28.5549C49.3113 28.8034 49.5653 29.19 49.7752 29.5545L50.1783 30.1509C50.2336 30.2503 50.3495 30.4436 50.5815 30.5762C50.6809 30.6314 50.8134 30.6701 50.9681 30.6701H52.9507C53.0667 30.6701 53.1992 30.6314 53.3538 30.5762C53.5692 30.4215 53.6631 30.2282 53.6631 29.9797C53.6465 29.8417 53.6079 29.7091 53.5305 29.5932L45.832 17.7196C45.6608 17.4103 45.3902 17.2004 45.0258 17.2004H43.1757C43.021 17.2004 42.8885 17.2391 42.7725 17.3164C42.5572 17.4545 42.4412 17.6091 42.386 17.703ZM47.152 25.5175C47.2127 25.5948 47.1906 25.6334 47.0967 25.6334H41.0881C40.9943 25.6334 40.9777 25.5948 41.0329 25.5175L44.0151 20.8785C44.0759 20.8233 44.1145 20.8233 44.1698 20.8785L47.152 25.5175Z" fill="black"/>
<path d="M76.4382 17.2004C76.6094 17.2004 76.8248 17.2391 76.9795 17.4103C77.1507 17.5815 77.1893 17.7969 77.1893 17.9515V29.9245C77.1893 30.0791 77.1507 30.289 76.9795 30.4657C76.8248 30.6369 76.615 30.6756 76.4382 30.6756H74.7428C74.301 30.6756 73.9917 30.3663 73.9917 29.9245V17.9515C73.9917 17.5097 74.301 17.2004 74.7428 17.2004H76.4382Z" fill="black"/>
<path d="M79.7077 17.4103C79.5752 17.587 79.4979 17.7803 79.4979 17.9515V26.9589C79.4979 29.3667 80.8067 30.6756 83.2146 30.6756H95.0109C95.16 30.6756 95.3754 30.6369 95.5466 30.4657C95.7012 30.289 95.7564 30.0791 95.7564 29.9245V28.4831C95.7564 28.0413 95.4471 27.732 95.0053 27.732H83.6674C83.2091 27.732 83.0323 27.6326 82.8998 27.5387C82.8004 27.4393 82.7065 27.2295 82.7065 26.7877V17.9515C82.7065 17.7969 82.6679 17.5815 82.4967 17.4103C82.3475 17.2391 82.1322 17.2004 81.961 17.2004H80.2655C80.0943 17.2004 79.879 17.2557 79.7077 17.4103Z" fill="black"/>
<path d="M99.5558 17.2004C99.727 17.2004 99.9423 17.2391 100.097 17.4103C100.268 17.5815 100.307 17.7969 100.307 17.9515V29.9245C100.307 30.0791 100.268 30.289 100.097 30.4657C99.9423 30.6369 99.7325 30.6756 99.5558 30.6756H97.8603C97.4185 30.6756 97.1093 30.3663 97.1093 29.9245V17.9515C97.1093 17.5097 97.4185 17.2004 97.8603 17.2004H99.5558Z" fill="black"/>
<path d="M118.145 17.4103C117.974 17.2557 117.758 17.2004 117.587 17.2004H102.4C101.958 17.2004 101.649 17.5097 101.649 17.9515V19.3929C101.649 19.5641 101.688 19.7795 101.859 19.9507C102.036 20.1053 102.245 20.144 102.4 20.144H108.425V29.919C108.425 30.0736 108.464 30.289 108.635 30.4602C108.79 30.6314 109.005 30.6701 109.176 30.6701H110.833C111.01 30.6701 111.22 30.6314 111.374 30.4602C111.545 30.2835 111.584 30.0736 111.584 29.919V20.144H117.587C118.029 20.144 118.355 19.8568 118.355 19.3929V17.9515C118.355 17.7748 118.277 17.5815 118.145 17.4103Z" fill="black"/>
<path d="M119.476 17.2004H121.459C121.892 17.2004 122.123 17.4396 122.294 17.6155L122.304 17.6257L127.291 22.9771L129.776 20.3041L131.488 18.4541L132.255 17.6091L132.271 17.5929C132.426 17.4378 132.657 17.206 133.084 17.206H135.066C135.238 17.206 135.376 17.2446 135.508 17.3385C135.585 17.3937 135.679 17.471 135.74 17.6091C135.801 17.7417 135.801 17.8576 135.762 17.957C135.74 18.1282 135.646 18.2442 135.569 18.3215L128.853 25.5561V29.9245C128.853 30.0791 128.815 30.289 128.644 30.4657C128.489 30.6369 128.279 30.6756 128.102 30.6756H126.446C126.004 30.6756 125.694 30.3663 125.694 29.9245V25.5561L122.348 21.9388C121.277 20.8083 120.238 19.669 119.614 18.9833C119.25 18.5837 119.026 18.3381 119.018 18.3381C118.924 18.2442 118.824 18.1282 118.808 17.9515C118.769 17.8576 118.769 17.7416 118.824 17.6036C118.924 17.3551 119.189 17.2004 119.476 17.2004Z" fill="black"/>
</svg>
