<svg width="24" height="25" viewBox="0 0 24 25" fill="none" xmlns="http://www.w3.org/2000/svg">
<path d="M15.2995 6.05011C14.5395 6.04999 13.8098 6.34824 13.2674 6.88068C12.7251 7.41313 12.4134 8.13721 12.3995 8.89711L12.3715 10.4721C12.3699 10.5567 12.3504 10.6399 12.3143 10.7164C12.2782 10.7929 12.2264 10.8609 12.1622 10.916C12.098 10.971 12.0228 11.0119 11.9417 11.0359C11.8606 11.0599 11.7754 11.0664 11.6915 11.0551L10.1305 10.8431C8.07653 10.5631 6.10853 9.61711 4.22053 8.04411C3.62253 11.3541 4.79053 13.6471 7.60353 15.4161L9.35053 16.5141C9.43354 16.5663 9.5025 16.638 9.55138 16.723C9.60026 16.808 9.62757 16.9036 9.63093 17.0016C9.63428 17.0996 9.61358 17.1969 9.57062 17.285C9.52767 17.3731 9.46378 17.4494 9.38453 17.5071L7.79253 18.6701C8.73953 18.7291 9.63853 18.6871 10.3845 18.5391C15.1025 17.5971 18.2395 14.0471 18.2395 8.19111C18.2395 7.71311 17.2275 6.05011 15.2995 6.05011ZM10.3995 8.86011C10.417 7.89616 10.7184 6.95878 11.2661 6.16534C11.8138 5.37189 12.5833 4.75763 13.4784 4.39948C14.3736 4.04133 15.3544 3.95519 16.2983 4.15186C17.2421 4.34853 18.107 4.81926 18.7845 5.50511C19.4955 5.50011 20.1005 5.68011 21.4535 4.86011C21.1185 6.50011 20.9535 7.21211 20.2395 8.19111C20.2395 15.8331 15.5425 19.5491 10.7765 20.5001C7.50853 21.1521 2.75653 20.0811 1.39453 18.6591C2.08853 18.6051 4.90853 18.3021 6.53853 17.1091C5.15953 16.2001 -0.329469 12.9701 3.27753 4.28611C4.97053 6.26311 6.68753 7.60911 8.42753 8.32311C9.58553 8.79811 9.86953 8.78811 10.4005 8.86111L10.3995 8.86011Z" fill="black"/>
</svg>
